# xmcd CD database file
#
# Track frame offsets:
#	150
#	11883
#	21235
#	32162
#	40425
#	50449
#	58061
#	71540
#	82406
#	90762
#	101937
#	112191
#	124455
#	133269
#	142435
#
# Disc length: 2056 seconds
#
# Revision: 0
# Processed by: cddbd v1.5.2PL0 Copyright (c) Steve Scherf et al.
# Submitted via: CDex 1.97
#
DISCID=ee08060f
DTITLE=ASCON - HVIZDANI
DYEAR=2011
DGENRE=Country
TTITLE0=PROTAHLEJ DLOUHEJ STIN
TTITLE1=HVIZDANI
TTITLE2=O MARNE TOUZE
TTITLE3=RIVER BLUES
TTITLE4=ARGUSOVA LEGIE
TTITLE5=BAL V NEW ORLEANS
TTITLE6=MC LAREN
TTITLE7=LU
TTITLE8=JIM Z FREGATY
TTITLE9=RYCHLE SIPY
TTITLE10=VLAK PULNOCNI
TTITLE11=VOLAM
TTITLE12=VZHURU HOSI NA PALUBU
TTITLE13=SIGNALY
TTITLE14=R.E.P.
EXTD=YEAR: 2011
EXTT0=
EXTT1=
EXTT2=
EXTT3=
EXTT4=
EXTT5=
EXTT6=
EXTT7=
EXTT8=
EXTT9=
EXTT10=
EXTT11=
EXTT12=
EXTT13=
EXTT14=
PLAYORDER=
